<?xml version="1.0"?>
<svg version="1.1" xmlns="http://www.w3.org/2000/svg" width="310px" height="100px" style="border: dashed 2px #aaa"><path fill="#e2e61e" d="M15.528,69.916l0.78,4.368s2.08,1.092,5.096,1.092c3.328,0,6.292-1.456,6.292-4.212c0-6.084-17.576-3.38-17.576-16.224c0-7.176,5.668-11.024,13.208-11.024c5.876,0,11.44,2.08,11.44,2.08l-0.26,9.464l-4.784,0l-1.3-4.42s-2.34-0.78-4.576-0.78c-3.692,0-5.512,1.612-5.512,3.692c0,6.032,17.524,3.64,17.524,15.86c0,7.8-6.032,12.064-14.04,12.064c-5.876,0-11.596-1.976-11.596-1.976l0-9.984l5.304,0z M61.62652,81.2l-0.936-3.38s-4.004,3.9-8.424,3.9c-5.044,0-8.112-2.964-8.112-8.164c0-6.136,4.628-8.58,12.532-8.58l3.64,0l0-2.86c0-2.652-1.404-3.796-4.004-3.796c-2.652,0-4.576,0.78-4.576,0.78l-0.78,3.276l-4.68,0l-0.364-7.696s6.292-2.08,11.284-2.08c7.904,0,10.92,2.756,10.92,10.296l0,12.844l3.9,0.936l0,4.16z M60.32652,69.396l-2.964,0c-4.056,0-5.668,1.04-5.668,3.38c0,1.976,1.092,3.12,3.068,3.12c2.756,0,5.564-3.016,5.564-3.016l0-3.484z M127.27704,77.04l0,4.16l-14.092,0l0-4.16l2.756-1.3l0-12.376c0-2.86-0.832-4.264-3.016-4.264c-3.38,0-5.772,2.704-5.772,2.704l0,13.936l2.704,1.3l0,4.16l-13.208,0l0-4.16l2.704-1.3l0-12.376c0-2.86-0.728-4.264-2.964-4.264c-3.38,0-5.824,2.704-5.824,2.704l0,13.936l2.756,1.3l0,4.16l-14.56,0l0-4.16l4.004-1.3l0-16.9l-3.952-1.3l0-4.16l10.868-0.26l0.364,3.692s4.524-4.212,9.1-4.212c3.692,0,5.98,1.716,7.176,4.472c0.884-0.884,4.784-4.472,9.412-4.472c5.46,0,8.008,3.536,8.008,9.36l0,13.78z M145.19156,40.9l0,15.236c1.508-1.248,4.888-3.536,8.736-3.536c5.304,0,8.164,3.536,8.164,9.36l0,13.78l3.64,1.3l0,4.16l-14.144,0l0-4.16l2.704-1.248l0-12.584c0-2.6-1.04-4.16-3.432-4.16c-2.912,0-5.668,2.756-5.668,2.756l0,13.936l2.756,1.3l0,4.16l-14.716,0l0-4.16l4.16-1.3l0-29.224l-4.16-1.04l0-4.16z M197.84208,68.876l-17.264,0c0.312,4.16,2.704,6.604,6.292,6.604c4.316,0,8.736-2.444,8.736-2.444l2.236,4.316s-5.2,4.368-11.856,4.368c-8.944,0-13.52-5.2-13.52-14.04c0-9.1,5.148-15.08,13.884-15.08c7.748,0,11.804,4.784,11.804,12.22c0,1.976-0.312,3.9-0.312,4.056z M180.68208,64.04l9.412,0c0-2.964-1.248-5.2-4.264-5.2c-2.912,0-4.732,2.132-5.148,5.2z M230.7846,68.876l-17.264,0c0.312,4.16,2.704,6.604,6.292,6.604c4.316,0,8.736-2.444,8.736-2.444l2.236,4.316s-5.2,4.368-11.856,4.368c-8.944,0-13.52-5.2-13.52-14.04c0-9.1,5.148-15.08,13.884-15.08c7.748,0,11.804,4.784,11.804,12.22c0,1.976-0.312,3.9-0.312,4.056z M213.6246,64.04l9.412,0c0-2.964-1.248-5.2-4.264-5.2c-2.912,0-4.732,2.132-5.148,5.2z M256.81112,74.544l1.872,3.952c-2.548,1.872-5.46,3.224-8.84,3.224c-5.98,0-7.696-4.16-7.696-10.14l0-11.96l-4.836,0l0-5.044l4.836-0.676l0-7.176l7.8-1.404l0,8.58l7.28,0l0,5.72l-7.28,0l0,11.44c0,3.328,0.572,4.68,2.756,4.68c1.404,0,3.432-0.832,4.108-1.196z M282.36964,81.2l-0.936-3.38s-4.004,3.9-8.424,3.9c-5.044,0-8.112-2.964-8.112-8.164c0-6.136,4.628-8.58,12.532-8.58l3.64,0l0-2.86c0-2.652-1.404-3.796-4.004-3.796c-2.652,0-4.576,0.78-4.576,0.78l-0.78,3.276l-4.68,0l-0.364-7.696s6.292-2.08,11.284-2.08c7.904,0,10.92,2.756,10.92,10.296l0,12.844l3.9,0.936l0,4.16z M281.06964,69.396l-2.964,0c-4.056,0-5.668,1.04-5.668,3.38c0,1.976,1.092,3.12,3.068,3.12c2.756,0,5.564-3.016,5.564-3.016l0-3.484z"/><path fill="#f5f231" d=""/></svg>
